<svg xmlns="http://www.w3.org/2000/svg" xmlns:cc="http://web.resource.org/cc/" xmlns:ns1="http://sozi.baierouge.fr" xmlns:svg="http://www.w3.org/2000/svg" xmlns:xlink="http://www.w3.org/1999/xlink" viewBox="0 0 337 398"><title/><g id="imagebot_2" label="Layer 1"><title>Layer 1</title><path id="imagebot_29" fill="#fff" d="m358.2 27.64c7.08-4.27 14.73-3.846 22.81 0.039-6.98-8.268-14.32-11.811-22.81-0.039z" label="Layer 1" opacity=".63" transform="translate(0) matrix(.92702 0 0 .92702 -166.06 -18.063)"/><g id="imagebot_102" transform="translate(-1) matrix(.96853 0 0 .96853 -.40014 10.448)"><g id="imagebot_83" label="Layer 1" transform="matrix(-1.301 0 0 1.301 653.97 -215.21)"><rect id="imagebot_99" width="14.475" height="23.757" x="431.12" y="149.06" fill="#a4a4a4" stroke="#484848" stroke-linecap="round" stroke-linejoin="round" stroke-width="2.312" ry="2.231" transform="matrix(.86053 .50939 -.50939 .86053 0 0)"/><path id="imagebot_98" fill="#6b6b6b" d="m304.15 349.26l-0.48 1.22-9.96 23.08 2.09 1.38 13.43-23.71-3.95-1.53-1.13-0.44z" opacity=".63"/><path id="imagebot_97" fill="#fff" d="m279.17 375.6l0.67-1.13 12.17-20.46 2.35-0.74-10.51 25.14-3.63-2.19-1.05-0.62z" opacity=".63"/><rect id="imagebot_96" width="14.475" height="23.757" x="431.12" y="149.06" fill="none" stroke="#484848" stroke-linecap="round" stroke-linejoin="round" stroke-width="2.312" ry="2.231" transform="matrix(.86053 .50939 -.50939 .86053 0 0)"/><rect id="imagebot_95" width="18.77" height="25.503" x="429.05" y="130.95" fill="#a4a4a4" stroke="#484848" stroke-linecap="round" stroke-linejoin="round" stroke-width="2" ry="2.127" transform="matrix(.86053 .50939 -.50939 .86053 0 0)"/><path id="imagebot_94" fill="#fff" d="m290.84 352.88l0.67-1.12 12.17-20.47 2.35-0.74-10.52 25.14-3.63-2.18-1.04-0.63z" opacity=".63"/><path id="imagebot_93" fill="#6b6b6b" d="m313.52 336.7l-0.48 1.23-9.96 23.08 2.09 1.38 13.43-23.71-3.95-1.53-1.13-0.45z" opacity=".63"/><rect id="imagebot_92" width="18.77" height="25.503" x="429.05" y="130.95" fill="none" stroke="#484848" stroke-linecap="round" stroke-linejoin="round" stroke-width="2" ry="2.127" transform="matrix(.86053 .50939 -.50939 .86053 0 0)"/><path id="imagebot_91" fill="#a4a4a4" stroke="#484848" stroke-linecap="round" stroke-linejoin="round" stroke-width="2" d="m315.5 337.99c0 9.87-6.83 17.87-15.25 17.87s-15.25-8-15.25-17.87 6.83-17.88 15.25-17.88 15.25 8.01 15.25 17.88z" transform="matrix(1.0954 0 0 .93453 -9.6756 11.286)"/><path id="imagebot_90" fill="#a4a4a4" stroke="#484848" stroke-linecap="round" stroke-linejoin="round" stroke-width="2.023" d="m262.61 380.88c-0.91-0.75-2.25-0.61-2.99 0.3l-8.95 10.93c-5.62 6.82-6.08 13.6-1.48 20.67l12.85-15.69c0.37-0.46 0.89-0.71 1.43-0.77 0.54-0.05 1.1 0.1 1.56 0.47l5.19 4.26c0.46 0.37 0.72 0.89 0.77 1.43s-0.09 1.1-0.47 1.56l-12.76 15.59c7.2 2.65 14.41 0.68 19.46-5.79l8.95-10.93c0.75-0.91 0.61-2.24-0.3-2.99l-1.02-11.01-11.63-9.52-10.61 1.49z"/><path id="imagebot_89" fill="gray" d="m257.5 419.49c13.57 0.08 18.45-9.77 23.94-18.82l-0.75-13.93 4.37 0.56 0.25 12.5 0.69 1.87-11.06 14.38-6.44 3.81-7 1-4-1.37z"/><path id="imagebot_88" fill="none" stroke="#484848" stroke-linecap="round" stroke-linejoin="round" stroke-width="2.023" d="m262.61 380.88c-0.91-0.75-2.25-0.61-2.99 0.3l-8.95 10.93c-5.62 6.82-6.08 13.6-1.48 20.67l12.85-15.69c0.37-0.46 0.89-0.71 1.43-0.77 0.54-0.05 1.1 0.1 1.56 0.47l5.19 4.26c0.46 0.37 0.72 0.89 0.77 1.43s-0.09 1.1-0.47 1.56l-12.76 15.59c7.2 2.65 14.41 0.68 19.46-5.79l8.95-10.93c0.75-0.91 0.61-2.24-0.3-2.99l-1.02-11.01-11.63-9.52-10.61 1.49z"/><path id="imagebot_87" fill="#fff" d="m249.5 408.86c-5.72-8.13 5.32-18.74 11.62-25.94l12.32-1.81c0.11 2-0.14 2.04 1.14 3.54-1.02-0.02-9.56 1.17-10.22 1.43-7.6 3.06-17.2 14.26-14.86 22.78z" opacity=".63"/><path id="imagebot_86" fill="#a4a4a4" stroke="#484848" stroke-linecap="round" stroke-linejoin="round" stroke-width="2.217" d="m284.96 369.65c0 6.83-5.77 12.37-12.9 12.37s-12.91-5.54-12.91-12.37 5.78-12.37 12.91-12.37 12.9 5.54 12.9 12.37z" transform="matrix(.86793 -.19882 .20416 .89120 -26.866 104.27)"/><path id="imagebot_85" fill="#fff" d="m275.21 381c2.76-5.64 7.82-8.68 14.56-9.81-7.84-2.01-13.97-0.99-14.56 9.81z" opacity=".63"/><path id="imagebot_84" fill="#fff" d="m305.65 332.16c0.8-12.31 8.92-17.25 18.79-18.65-9.99-3.75-23.71 5.57-18.79 18.65z" opacity=".63"/></g><g id="imagebot_66" label="Layer 1" transform="rotate(105.73 79.312 187.27) matrix(1.301 0 0 1.301 -299.27 -288.45)"><rect id="imagebot_82" width="14.475" height="23.757" x="431.12" y="149.06" fill="#a4a4a4" stroke="#484848" stroke-linecap="round" stroke-linejoin="round" stroke-width="2.312" ry="2.231" transform="matrix(.86053 .50939 -.50939 .86053 0 0)"/><path id="imagebot_81" fill="#6b6b6b" d="m304.15 349.26l-0.48 1.22-9.96 23.08 2.09 1.38 13.43-23.71-3.95-1.53-1.13-0.44z" opacity=".63"/><path id="imagebot_80" fill="#fff" d="m279.17 375.6l0.67-1.13 12.17-20.46 2.35-0.74-10.51 25.14-3.63-2.19-1.05-0.62z" opacity=".63"/><rect id="imagebot_79" width="14.475" height="23.757" x="431.12" y="149.06" fill="none" stroke="#484848" stroke-linecap="round" stroke-linejoin="round" stroke-width="2.312" ry="2.231" transform="matrix(.86053 .50939 -.50939 .86053 0 0)"/><rect id="imagebot_78" width="18.77" height="25.503" x="429.05" y="130.95" fill="#a4a4a4" stroke="#484848" stroke-linecap="round" stroke-linejoin="round" stroke-width="2" ry="2.127" transform="matrix(.86053 .50939 -.50939 .86053 0 0)"/><path id="imagebot_77" fill="#fff" d="m290.84 352.88l0.67-1.12 12.17-20.47 2.35-0.74-10.52 25.14-3.63-2.18-1.04-0.63z" opacity=".63"/><path id="imagebot_76" fill="#6b6b6b" d="m313.52 336.7l-0.48 1.23-9.96 23.08 2.09 1.38 13.43-23.71-3.95-1.53-1.13-0.45z" opacity=".63"/><rect id="imagebot_75" width="18.77" height="25.503" x="429.05" y="130.95" fill="none" stroke="#484848" stroke-linecap="round" stroke-linejoin="round" stroke-width="2" ry="2.127" transform="matrix(.86053 .50939 -.50939 .86053 0 0)"/><path id="imagebot_74" fill="#a4a4a4" stroke="#484848" stroke-linecap="round" stroke-linejoin="round" stroke-width="2" d="m315.5 337.99c0 9.87-6.83 17.87-15.25 17.87s-15.25-8-15.25-17.87 6.83-17.88 15.25-17.88 15.25 8.01 15.25 17.88z" transform="matrix(1.0954 0 0 .93453 -9.6756 11.286)"/><path id="imagebot_73" fill="#a4a4a4" stroke="#484848" stroke-linecap="round" stroke-linejoin="round" stroke-width="2.023" d="m262.61 380.88c-0.91-0.75-2.25-0.61-2.99 0.3l-8.95 10.93c-5.62 6.82-6.08 13.6-1.48 20.67l12.85-15.69c0.37-0.46 0.89-0.71 1.43-0.77 0.54-0.05 1.1 0.1 1.56 0.47l5.19 4.26c0.46 0.37 0.72 0.89 0.77 1.43s-0.09 1.1-0.47 1.56l-12.76 15.59c7.2 2.65 14.41 0.68 19.46-5.79l8.95-10.93c0.75-0.91 0.61-2.24-0.3-2.99l-1.02-11.01-11.63-9.52-10.61 1.49z"/><path id="imagebot_72" fill="gray" d="m257.5 419.49c13.57 0.08 18.45-9.77 23.94-18.82l-0.75-13.93 4.37 0.56 0.25 12.5 0.69 1.87-11.06 14.38-6.44 3.81-7 1-4-1.37z"/><path id="imagebot_71" fill="none" stroke="#484848" stroke-linecap="round" stroke-linejoin="round" stroke-width="2.023" d="m262.61 380.88c-0.91-0.75-2.25-0.61-2.99 0.3l-8.95 10.93c-5.62 6.82-6.08 13.6-1.48 20.67l12.85-15.69c0.37-0.46 0.89-0.71 1.43-0.77 0.54-0.05 1.1 0.1 1.56 0.47l5.19 4.26c0.46 0.37 0.72 0.89 0.77 1.43s-0.09 1.1-0.47 1.56l-12.76 15.59c7.2 2.65 14.41 0.68 19.46-5.79l8.95-10.93c0.75-0.91 0.61-2.24-0.3-2.99l-1.02-11.01-11.63-9.52-10.61 1.49z"/><path id="imagebot_70" fill="#fff" d="m249.5 408.86c-5.72-8.13 5.32-18.74 11.62-25.94l12.32-1.81c0.11 2-0.14 2.04 1.14 3.54-1.02-0.02-9.56 1.17-10.22 1.43-7.6 3.06-17.2 14.26-14.86 22.78z" opacity=".63"/><path id="imagebot_69" fill="#a4a4a4" stroke="#484848" stroke-linecap="round" stroke-linejoin="round" stroke-width="2.217" d="m284.96 369.65c0 6.83-5.77 12.37-12.9 12.37s-12.91-5.54-12.91-12.37 5.78-12.37 12.91-12.37 12.9 5.54 12.9 12.37z" transform="matrix(.86793 -.19882 .20416 .89120 -26.866 104.27)"/><path id="imagebot_68" fill="#fff" d="m275.21 381c2.76-5.64 7.82-8.68 14.56-9.81-7.84-2.01-13.97-0.99-14.56 9.81z" opacity=".63"/><path id="imagebot_67" fill="#fff" d="m305.65 332.16c0.8-12.31 8.92-17.25 18.79-18.65-9.99-3.75-23.71 5.57-18.79 18.65z" opacity=".63"/></g><g id="imagebot_51" label="Layer 1" transform="matrix(-1.301 0 0 1.301 659.46 -215.67)"><rect id="imagebot_65" width="36.77" height="12.728" x="325.98" y="435.84" fill="#a4a4a4" stroke="#484848" stroke-linecap="round" stroke-linejoin="round" stroke-width="2" ry="6.364"/><rect id="imagebot_64" width="36.77" height="12.728" x="325.98" y="423.84" fill="#a4a4a4" stroke="#484848" stroke-linecap="round" stroke-linejoin="round" stroke-width="2" ry="6.364"/><rect id="imagebot_63" width="36.77" height="12.728" x="325.98" y="411.84" fill="#a4a4a4" stroke="#484848" stroke-linecap="round" stroke-linejoin="round" stroke-width="2" ry="6.364"/><rect id="imagebot_62" width="36.77" height="12.728" x="325.62" y="399.47" fill="#a4a4a4" stroke="#484848" stroke-linecap="round" stroke-linejoin="round" stroke-width="2" ry="6.364"/><path id="imagebot_61" fill="gray" d="m351.26 399c2.31 4.01 4.23 8.06 0 12.72 2.65 3.69 5.3 7.39-0.18 12.38 5.11 4.78 3.11 8.37 0.35 11.84 4.54 7.66 0.51 8.76 0 12.55l10.61 0.18-0.89-2.65 2.13-3.18-1.06-4.6-3.36-2.65 3.53-2.65 0.71-3.89-3.71-4.95 2.47-2.3 0.89-4.42-4.25-5.83 3.19-2.48 1.23-3.71-2.3-4.42-2.29-1.94-6.19 0.53-0.88-0.53z"/><path id="imagebot_60" fill="#fff" d="m336.97 399.12c-2.31 4.01-4.23 8.06 0 12.73-2.65 3.69-5.3 7.38 0.18 12.37-5.12 4.78-3.11 8.38-0.35 11.85-4.54 7.65-0.51 8.76 0 12.55l-10.61 0.17 0.88-2.65-2.12-3.18 1.06-4.6 3.36-2.65-3.53-2.65-0.71-3.89 3.71-4.95-2.47-2.3-0.89-4.41 4.25-5.84-3.19-2.47-1.23-3.72 2.3-4.41 2.29-1.95 6.19 0.53 0.88-0.53z" opacity=".63"/><rect id="imagebot_59" width="36.77" height="12.103" x="325.98" y="436.47" fill="none" stroke="#484848" stroke-linecap="round" stroke-linejoin="round" stroke-width="2" ry="6.051"/><rect id="imagebot_58" width="36.77" height="11.978" x="325.98" y="424.59" fill="none" stroke="#484848" stroke-linecap="round" stroke-linejoin="round" stroke-width="2" ry="5.989"/><rect id="imagebot_57" width="36.77" height="12.228" x="325.98" y="412.34" fill="none" stroke="#484848" stroke-linecap="round" stroke-linejoin="round" stroke-width="2" ry="6.114"/><rect id="imagebot_56" width="36.77" height="12.728" x="325.62" y="399.47" fill="none" stroke="#484848" stroke-linecap="round" stroke-linejoin="round" stroke-width="2" ry="6.364"/><path id="imagebot_55" fill="#a4a4a4" stroke="#484848" stroke-linecap="round" stroke-linejoin="round" stroke-width="2" d="m363.1 466.7c-3.85 0.32-61.69 1.01-62.93-0.35 0-13.57 14.69-24.57 32.82-24.57 10.31 0 23.01 1.78 29.02 4.87 1.01 1.85 1.09 14.2 1.09 20.05z"/><path id="imagebot_54" fill="gray" d="m300.34 463.87c31.85-1.12 62.49 3.73 56.04-19.09l6.19 2.12 0.53 20.15-62.58-0.17-0.18-3.01z"/><path id="imagebot_53" fill="none" stroke="#484848" stroke-linecap="round" stroke-linejoin="round" stroke-width="2" d="m363.1 466.7c-3.85 0.32-61.69 1.01-62.93-0.35 0-13.57 14.69-24.57 32.82-24.57 10.31 0 23.01 1.78 29.02 4.87 1.01 1.85 1.09 14.2 1.09 20.05z"/><path id="imagebot_52" fill="#fff" d="m306.28 456.85c7.08-6.01 14.24-10.69 31.49-12.14-12.87-2.17-25.95 1.39-31.49 12.14z" opacity=".63"/></g><rect id="imagebot_50" width="18.075" height="39.695" x="455.8" y="113.75" fill="#a4a4a4" stroke="#484848" stroke-linecap="round" stroke-linejoin="round" stroke-width="2.807" label="Layer 1" transform="translate(0) matrix(.92702 0 0 .92702 -166.06 -18.063)"/><rect id="imagebot_49" width="21.928" height="9.122" x="450.62" y="115.16" fill="#e3e3e3" label="Layer 1" ry="0" transform="translate(0) matrix(.92702 0 0 .92702 -166.06 -18.063)"/><rect id="imagebot_48" width="21.928" height="9.122" x="450.55" y="142.92" fill="#000" label="Layer 1" opacity=".35" ry="0" transform="translate(0) matrix(.92702 0 0 .92702 -166.06 -17.063)"/><rect id="imagebot_47" width="51.2" height="19.288" x="348.47" y="175.97" fill="#a4a4a4" stroke="#484848" stroke-linecap="round" stroke-linejoin="round" stroke-width="2.807" label="Layer 1" ry="0" transform="matrix(.92702 0 0 .92702 -166.06 7.9371)"/><rect id="imagebot_46" width="59.829" height="19.145" x="344.33" y="195.33" fill="#a4a4a4" stroke="#484848" stroke-linecap="round" stroke-linejoin="round" stroke-width="2.807" label="Layer 1" ry="0" transform="matrix(.92702 0 0 .92702 -166.06 7.9371)"/><rect id="imagebot_45" width="129.86" height="115.1" x="307.52" y="204.38" fill="#a4a4a4" stroke="#484848" stroke-linecap="round" stroke-linejoin="round" stroke-width="2.807" label="Layer 1" ry="0" transform="matrix(.92702 0 0 .92702 -166.06 7.9371)"/><rect id="imagebot_44" width="18.075" height="39.695" x="270.55" y="113.75" fill="#a4a4a4" stroke="#484848" stroke-linecap="round" stroke-linejoin="round" stroke-width="2.807" label="Layer 1" transform="translate(0) matrix(.92702 0 0 .92702 -166.06 -18.063)"/><rect id="imagebot_43" width="21.928" height="9.122" x="271.66" y="115.03" fill="#e3e3e3" label="Layer 1" ry="0" transform="translate(0) matrix(.92702 0 0 .92702 -166.06 -18.063)"/><rect id="imagebot_42" width="21.928" height="9.122" x="272.01" y="143.1" fill="#000" label="Layer 1" opacity=".35" ry="0" transform="translate(0) matrix(.92702 0 0 .92702 -166.06 -18.063)"/><rect id="imagebot_41" width="169.31" height="87.084" x="287.26" y="88.992" fill="#a4a4a4" stroke="#484848" stroke-linecap="round" stroke-linejoin="round" stroke-width="2.807" label="Layer 1" transform="translate(0) matrix(.92702 0 0 .92702 -166.06 -17.063)"/><path id="imagebot_40" fill="#000" d="m432.52 90.359h22.68v92.501h-22.68c6.55-30.83 10.45-61.67 0-92.501z" label="Layer 1" opacity=".328" transform="translate(0) matrix(.92702 0 0 .92702 -166.06 -17.063)"/><path id="imagebot_39" fill="#a4a4a4" stroke="#484848" stroke-linecap="round" stroke-linejoin="round" stroke-width="2.807" d="m279.81 139.31h23.16l21.68 23h92.64l24.64-23h23.16v47.41h-185.28v-47.41z" label="Layer 1" transform="matrix(.92702 0 0 .92702 -166.06 7.9371)"/><path id="imagebot_38" fill="#fff" stroke="#484848" d="m353.55 256.11c0 6.42-4.86 11.62-10.86 11.62-5.99 0-10.85-5.2-10.85-11.62s4.86-11.62 10.85-11.62c6 0 10.86 5.2 10.86 11.62z" label="Layer 1" transform="translate(0) matrix(1.6852 0 0 1.5753 -426.67 -311.21)"/><path id="imagebot_37" fill="#fff" stroke="#484848" d="m353.55 256.11c0 6.42-4.86 11.62-10.86 11.62-5.99 0-10.85-5.2-10.85-11.62s4.86-11.62 10.85-11.62c6 0 10.86 5.2 10.86 11.62z" label="Layer 1" transform="translate(0) matrix(1.6852 0 0 1.5753 -371.8 -312.2)"/><path id="imagebot_36" fill="#000" d="m349.26 252.07c0 2.79-2.77 5.05-6.19 5.05-3.41 0-6.18-2.26-6.18-5.05s2.77-5.05 6.18-5.05c3.42 0 6.19 2.26 6.19 5.05z" label="Layer 1" transform="translate(0) matrix(1.8627 0 0 2.2818 -485.47 -484.27)"/><path id="imagebot_35" fill="#000" d="m349.26 252.07c0 2.79-2.77 5.05-6.19 5.05-3.41 0-6.18-2.26-6.18-5.05s2.77-5.05 6.18-5.05c3.42 0 6.19 2.26 6.19 5.05z" label="Layer 1" transform="translate(0) matrix(1.8627 0 0 2.2818 -439.6 -480.93)"/><path id="imagebot_34" fill="#e5e5e5" d="m290.04 136.08l1.42-42.886 74.08-1.063-67.7 6.379-7.8 37.57z" label="Layer 1" transform="translate(0) matrix(.92702 0 0 .92702 -166.06 -18.063)"/><path id="imagebot_33" fill="#000" d="m442.44 140.69l21.27-0.09v44.65h-34.03c2.95-9.24 4.73-19.08-0.17-32.25l12.93-12.31z" label="Layer 1" opacity=".328" transform="matrix(.92702 0 0 .92702 -166.06 7.9371)"/><path id="imagebot_32" fill="#e5e5e5" d="m282.63 150.21l0.13 33.99 61.94 0.06-56.33-5.34-5.74-28.71z" label="Layer 1" transform="matrix(.92702 0 0 .92702 -166.06 7.9371)"/><path id="imagebot_31" fill="#a4a4a4" stroke="#484848" stroke-width="2.807" d="m365.89 45.844h6.45l8.93 43.168h-24.81l9.43-43.168z" label="Layer 1" transform="translate(0) matrix(.92702 0 0 .92702 -166.06 -18.063)"/><path id="imagebot_30" fill="#604aff" stroke="#00054d" stroke-width="2" d="m244.31 194.46c0 6.55-4.99 11.85-11.14 11.85s-11.14-5.3-11.14-11.85c0-6.54 4.99-11.84 11.14-11.84s11.14 5.3 11.14 11.84z" label="Layer 1" transform="translate(0) matrix(1.301 0 0 1.301 -126.77 -239.37)"/><path id="imagebot_28" fill="#000" d="m355.87 38.809c10.23 6.983 19.55 7.88 27.45-0.79-2.01 11.642-20.58 18.209-27.45 0.79z" label="Layer 1" opacity=".35" transform="translate(0) matrix(.92702 0 0 .92702 -166.06 -18.063)"/><rect id="imagebot_27" width="57.149" height="6.976" x="343.78" y="288.73" fill="#484848" stroke="#484848" stroke-linecap="round" stroke-linejoin="round" stroke-width="1.795" label="Layer 1" ry="3.394" transform="matrix(.92702 0 0 .92702 -166.06 7.9371)"/><rect id="imagebot_26" width="57.149" height="6.976" x="344.48" y="302.06" fill="#484848" stroke="#484848" stroke-linecap="round" stroke-linejoin="round" stroke-width="1.795" label="Layer 1" ry="3.394" transform="matrix(.92702 0 0 .92702 -166.06 7.9371)"/><path id="imagebot_25" fill="red" stroke="#484848" stroke-linecap="round" stroke-linejoin="round" stroke-width="2" d="m342.5 330.99c0 3.38-3.02 6.12-6.75 6.12s-6.75-2.74-6.75-6.12c0-3.39 3.02-6.13 6.75-6.13s6.75 2.74 6.75 6.13z" label="Layer 1" transform="matrix(1.2412 0 0 1.3678 -281.25 -167.48)"/><path id="imagebot_24" fill="red" stroke="#484848" stroke-linecap="round" stroke-linejoin="round" stroke-width="2" d="m342.5 330.99c0 3.38-3.02 6.12-6.75 6.12s-6.75-2.74-6.75-6.12c0-3.39 3.02-6.13 6.75-6.13s6.75 2.74 6.75 6.13z" label="Layer 1" transform="matrix(1.2412 0 0 1.3678 -192.78 -167.48)"/><rect id="imagebot_23" width="114.73" height="70.171" x="314.82" y="212.74" fill="#dbfffc" stroke="#484848" stroke-linecap="round" stroke-linejoin="round" stroke-width="2.807" label="Layer 1" ry="3.394" transform="matrix(.92702 0 0 .92702 -166.06 7.9371)"/><path id="imagebot_22" fill="none" stroke="#00a799" stroke-linecap="round" stroke-linejoin="round" stroke-width="2.807" d="m315.52 253.44h13.33l9.82-30.17 5.97 30.53 7.37-13.34 11.22 29.83 6.67-19.3 15.44-0.35 6.31-23.16 6.32 37.54 6.31-24.56 3.51 12.63h20.35" label="Layer 1" transform="matrix(.92702 0 0 .92702 -166.06 7.9371)"/><path id="imagebot_21" fill="#fff" d="m318.22 279.67l0.02-57.89c-0.12-3.83 2.93-5.8 5.96-5.93l98.44-0.25-94.57 5.73c-3.37 0.42-4.78 2.24-4.87 5.01l-5.16 43.33 0.18 10z" label="Layer 1" opacity=".95" transform="matrix(.92702 0 0 .92702 -166.06 7.9371)"/><rect id="imagebot_20" width="114.73" height="70.171" x="314.82" y="212.74" fill="none" stroke="#484848" stroke-linecap="round" stroke-linejoin="round" stroke-width="2.807" label="Layer 1" ry="3.394" transform="matrix(.92702 0 0 .92702 -166.06 7.9371)"/><path id="imagebot_19" fill="#fff" d="m318.39 296.71c4.26-2.31 8.88-2.08 13.75 0.03-4.21-4.49-8.64-6.41-13.75-0.03z" label="Layer 1" opacity=".63" transform="matrix(.92702 0 0 .92702 -166.06 7.9371)"/><path id="imagebot_18" fill="#fff" d="m413.9 296.65c4.27-2.32 8.88-2.09 13.75 0.02-4.21-4.48-8.63-6.41-13.75-0.02z" label="Layer 1" opacity=".63" transform="matrix(.92702 0 0 .92702 -166.06 7.9371)"/><g id="imagebot_3" label="Layer 1" transform="matrix(1.301 0 0 1.301 -298.34 -215.21)"><rect id="imagebot_17" width="36.77" height="12.728" x="325.98" y="435.84" fill="#a4a4a4" stroke="#484848" stroke-linecap="round" stroke-linejoin="round" stroke-width="2" ry="6.364"/><rect id="imagebot_16" width="36.77" height="12.728" x="325.98" y="423.84" fill="#a4a4a4" stroke="#484848" stroke-linecap="round" stroke-linejoin="round" stroke-width="2" ry="6.364"/><rect id="imagebot_15" width="36.77" height="12.728" x="325.98" y="411.84" fill="#a4a4a4" stroke="#484848" stroke-linecap="round" stroke-linejoin="round" stroke-width="2" ry="6.364"/><rect id="imagebot_14" width="36.77" height="12.728" x="325.62" y="399.47" fill="#a4a4a4" stroke="#484848" stroke-linecap="round" stroke-linejoin="round" stroke-width="2" ry="6.364"/><path id="imagebot_13" fill="gray" d="m351.26 399c2.31 4.01 4.23 8.06 0 12.72 2.65 3.69 5.3 7.39-0.18 12.38 5.11 4.78 3.11 8.37 0.35 11.84 4.54 7.66 0.51 8.76 0 12.55l10.61 0.18-0.89-2.65 2.13-3.18-1.06-4.6-3.36-2.65 3.53-2.65 0.71-3.89-3.71-4.95 2.47-2.3 0.89-4.42-4.25-5.83 3.19-2.48 1.23-3.71-2.3-4.42-2.29-1.94-6.19 0.53-0.88-0.53z"/><path id="imagebot_12" fill="#fff" d="m336.97 399.12c-2.31 4.01-4.23 8.06 0 12.73-2.65 3.69-5.3 7.38 0.18 12.37-5.12 4.78-3.11 8.38-0.35 11.85-4.54 7.65-0.51 8.76 0 12.55l-10.61 0.17 0.88-2.65-2.12-3.18 1.06-4.6 3.36-2.65-3.53-2.65-0.71-3.89 3.71-4.95-2.47-2.3-0.89-4.41 4.25-5.84-3.19-2.47-1.23-3.72 2.3-4.41 2.29-1.95 6.19 0.53 0.88-0.53z" opacity=".63"/><rect id="imagebot_11" width="36.77" height="12.103" x="325.98" y="436.47" fill="none" stroke="#484848" stroke-linecap="round" stroke-linejoin="round" stroke-width="2" ry="6.051"/><rect id="imagebot_10" width="36.77" height="11.978" x="325.98" y="424.59" fill="none" stroke="#484848" stroke-linecap="round" stroke-linejoin="round" stroke-width="2" ry="5.989"/><rect id="imagebot_9" width="36.77" height="12.228" x="325.98" y="412.34" fill="none" stroke="#484848" stroke-linecap="round" stroke-linejoin="round" stroke-width="2" ry="6.114"/><rect id="imagebot_8" width="36.77" height="12.728" x="325.62" y="399.47" fill="none" stroke="#484848" stroke-linecap="round" stroke-linejoin="round" stroke-width="2" ry="6.364"/><path id="imagebot_7" fill="#a4a4a4" stroke="#484848" stroke-linecap="round" stroke-linejoin="round" stroke-width="2" d="m363.1 466.7c-3.85 0.32-61.69 1.01-62.93-0.35 0-13.57 14.69-24.57 32.82-24.57 10.31 0 23.01 1.78 29.02 4.87 1.01 1.85 1.09 14.2 1.09 20.05z"/><path id="imagebot_6" fill="gray" d="m300.34 463.87c31.85-1.12 62.49 3.73 56.04-19.09l6.19 2.12 0.53 20.15-62.58-0.17-0.18-3.01z"/><path id="imagebot_5" fill="none" stroke="#484848" stroke-linecap="round" stroke-linejoin="round" stroke-width="2" d="m363.1 466.7c-3.85 0.32-61.69 1.01-62.93-0.35 0-13.57 14.69-24.57 32.82-24.57 10.31 0 23.01 1.78 29.02 4.87 1.01 1.85 1.09 14.2 1.09 20.05z"/><path id="imagebot_4" fill="#fff" d="m306.28 456.85c7.08-6.01 14.24-10.69 31.49-12.14-12.87-2.17-25.95 1.39-31.49 12.14z" opacity=".63"/></g></g><path id="imagebot_115" fill="#000" stroke="#000" d="m50.84 181.02c35.57-80.72 83.55-44.3 86.24-44.96l10.9 0.3 15.7-0.44-19.44 13.46-20.28 8.87c-5.45 1.22-21.53 1.79-26.248 2.27-4.719 0.49-10.151 0.86-14.87 2.08-4.719 1.23-11.142 4.51-16.554 7.55-5.411 3.05-11.56 8.3-15.448 10.87z" transform="rotate(-2.44 113.9 149.1) matrix(1 0 0 1 6.6433 -5.6228)"/><path id="imagebot_117" fill="#000" stroke="#000" d="m50.84 181.02c35.57-80.72 83.55-44.3 86.24-44.96l10.9 0.3 15.7-0.44-19.44 13.46-20.28 8.87c-5.45 1.22-21.53 1.79-26.248 2.27-4.719 0.49-10.151 0.86-14.87 2.08-4.719 1.23-11.142 4.51-16.554 7.55-5.411 3.05-11.56 8.3-15.448 10.87z" transform="rotate(2.44 226.46 149.1) matrix(-1 0 0 1 333.72 -5.6228)"/></g><metadata/></svg>
